<svg height="511pt" viewBox="0 0 511 511.04183" width="511pt" xmlns="http://www.w3.org/2000/svg"><path d="m511.046875 255.511719h-31.9375c0-123.285157-100.289063-223.574219-223.574219-223.574219s-223.574218 100.289062-223.574218 223.574219h-31.9414068c0-140.882813 114.6328128-255.511719 255.5156248-255.511719 140.882813 0 255.511719 114.628906 255.511719 255.511719zm0 0" fill="#bee4f1"/><path d="m111.808594 255.511719h-31.941406c0-96.855469 78.8125-175.664063 175.667968-175.664063 25.308594 0 49.761719 5.300782 72.707032 15.746094l-13.253907 29.066406c-18.746093-8.546875-38.742187-12.875-59.453125-12.875-79.257812 0-143.726562 64.472656-143.726562 143.726563zm0 0" fill="#bee4f1"/><path d="m248.746094 511.042969c-12.023438 0-24.066406-2.414063-35.53125-7.265625-25.902344-10.988282-44.9375-32.898438-52.238282-60.09375-7.28125-27.179688-1.738281-55.671875 15.203126-78.171875l218.703124-289.894531-56.515624 358.691406c-4.375 27.800781-21 51.582031-45.609376 65.25-13.75 7.632812-28.855468 11.484375-44.011718 11.484375zm0 0" fill="#ef5350"/><path d="m239.5625 399.238281h31.941406v31.941407h-31.941406zm0 0" fill="#fff"/><g fill="#8fd5e5"><path d="m.0195312 287.453125h31.9414068v31.9375h-31.9414068zm0 0"/><path d="m399.261719 287.453125h31.9375v31.9375h-31.9375zm0 0"/><path d="m479.109375 287.453125h31.9375v31.9375h-31.9375zm0 0"/><path d="m79.867188 287.453125h31.941406v31.9375h-31.941406zm0 0"/></g></svg>